<?xml version="1.0" encoding="us-ascii" standalone="no"?><svg xmlns="http://www.w3.org/2000/svg" xmlns:xlink="http://www.w3.org/1999/xlink" contentStyleType="text/css" height="440px" preserveAspectRatio="none" style="width:608px;height:440px;background:#FFFFFF;" version="1.1" viewBox="0 0 608 440" width="608px" zoomAndPan="magnify"><defs/><g><line style="stroke:#181818;stroke-width:0.5;stroke-dasharray:5.0,5.0;" x1="34" x2="34" y1="84.0679" y2="356.716"/><line style="stroke:#181818;stroke-width:0.5;stroke-dasharray:5.0,5.0;" x1="195.5" x2="195.5" y1="84.0679" y2="356.716"/><line style="stroke:#181818;stroke-width:0.5;stroke-dasharray:5.0,5.0;" x1="404.5" x2="404.5" y1="84.0679" y2="356.716"/><line style="stroke:#181818;stroke-width:0.5;stroke-dasharray:5.0,5.0;" x1="571" x2="571" y1="84.0679" y2="356.716"/><text fill="#000000" font-family="sans-serif" font-size="14" lengthAdjust="spacing" textLength="52" x="5" y="79.9659">Usuario</text><ellipse cx="34" cy="13.5" fill="#E2E2F0" rx="8" ry="8" style="stroke:#181818;stroke-width:0.5;"/><path d="M34,21.5 L34,48.5 M21,29.5 L47,29.5 M34,48.5 L21,63.5 M34,48.5 L47,63.5 " fill="none" style="stroke:#181818;stroke-width:0.5;"/><text fill="#000000" font-family="sans-serif" font-size="14" lengthAdjust="spacing" textLength="52" x="5" y="370.682">Usuario</text><ellipse cx="34" cy="383.284" fill="#E2E2F0" rx="8" ry="8" style="stroke:#181818;stroke-width:0.5;"/><path d="M34,391.284 L34,418.284 M21,399.284 L47,399.284 M34,418.284 L21,433.284 M34,418.284 L47,433.284 " fill="none" style="stroke:#181818;stroke-width:0.5;"/><rect fill="#E2E2F0" height="33.0679" rx="2.5" ry="2.5" style="stroke:#181818;stroke-width:0.5;" width="75" x="158.5" y="50"/><text fill="#000000" font-family="sans-serif" font-size="14" lengthAdjust="spacing" textLength="61" x="165.5" y="71.9659">Frontend</text><rect fill="#E2E2F0" height="33.0679" rx="2.5" ry="2.5" style="stroke:#181818;stroke-width:0.5;" width="75" x="158.5" y="355.716"/><text fill="#000000" font-family="sans-serif" font-size="14" lengthAdjust="spacing" textLength="61" x="165.5" y="377.682">Frontend</text><rect fill="#E2E2F0" height="33.0679" rx="2.5" ry="2.5" style="stroke:#181818;stroke-width:0.5;" width="135" x="337.5" y="50"/><text fill="#000000" font-family="sans-serif" font-size="14" lengthAdjust="spacing" textLength="121" x="344.5" y="71.9659">Backend (Express)</text><rect fill="#E2E2F0" height="33.0679" rx="2.5" ry="2.5" style="stroke:#181818;stroke-width:0.5;" width="135" x="337.5" y="355.716"/><text fill="#000000" font-family="sans-serif" font-size="14" lengthAdjust="spacing" textLength="121" x="344.5" y="377.682">Backend (Express)</text><text fill="#000000" font-family="sans-serif" font-size="14" lengthAdjust="spacing" textLength="66" x="535" y="79.9659">Supabase</text><path d="M553,29 C553,19 571,19 571,19 C571,19 589,19 589,29 L589,55 C589,65 571,65 571,65 C571,65 553,65 553,55 L553,29 " fill="#E2E2F0" style="stroke:#181818;stroke-width:1.5;"/><path d="M553,29 C553,39 571,39 571,39 C571,39 589,39 589,29 " fill="none" style="stroke:#181818;stroke-width:1.5;"/><text fill="#000000" font-family="sans-serif" font-size="14" lengthAdjust="spacing" textLength="66" x="535" y="370.682">Supabase</text><path d="M553,384.784 C553,374.784 571,374.784 571,374.784 C571,374.784 589,374.784 589,384.784 L589,410.784 C589,420.784 571,420.784 571,420.784 C571,420.784 553,420.784 553,410.784 L553,384.784 " fill="#E2E2F0" style="stroke:#181818;stroke-width:1.5;"/><path d="M553,384.784 C553,394.784 571,394.784 571,394.784 C571,394.784 589,394.784 589,384.784 " fill="none" style="stroke:#181818;stroke-width:1.5;"/><polygon fill="#181818" points="184,113.7739,194,117.7739,184,121.7739,188,117.7739" style="stroke:#181818;stroke-width:1.0;"/><line style="stroke:#181818;stroke-width:1.0;" x1="34" x2="190" y1="117.7739" y2="117.7739"/><text fill="#000000" font-family="sans-serif" font-size="13" lengthAdjust="spacing" textLength="138" x="41" y="111.9649">Accede al feed principal</text><polygon fill="#181818" points="393,145.4799,403,149.4799,393,153.4799,397,149.4799" style="stroke:#181818;stroke-width:1.0;"/><line style="stroke:#181818;stroke-width:1.0;" x1="196" x2="399" y1="149.4799" y2="149.4799"/><text fill="#000000" font-family="sans-serif" font-size="13" lengthAdjust="spacing" textLength="64" x="203" y="143.6709">GET /posts</text><line style="stroke:#181818;stroke-width:1.0;" x1="405" x2="447" y1="181.186" y2="181.186"/><line style="stroke:#181818;stroke-width:1.0;" x1="447" x2="447" y1="181.186" y2="194.186"/><line style="stroke:#181818;stroke-width:1.0;" x1="406" x2="447" y1="194.186" y2="194.186"/><polygon fill="#181818" points="416,190.186,406,194.186,416,198.186,412,194.186" style="stroke:#181818;stroke-width:1.0;"/><text fill="#000000" font-family="sans-serif" font-size="13" lengthAdjust="spacing" textLength="114" x="412" y="175.377">Validar par&#225;metros</text><polygon fill="#181818" points="559,239.598,569,243.598,559,247.598,563,243.598" style="stroke:#181818;stroke-width:1.0;"/><line style="stroke:#181818;stroke-width:1.0;" x1="405" x2="565" y1="243.598" y2="243.598"/><text fill="#000000" font-family="sans-serif" font-size="13" lengthAdjust="spacing" textLength="142" x="412" y="220.083">Consultar publicaciones</text><text fill="#000000" font-family="sans-serif" font-size="13" lengthAdjust="spacing" textLength="123" x="412" y="237.789">ordenadas por fecha</text><polygon fill="#181818" points="416,271.304,406,275.304,416,279.304,412,275.304" style="stroke:#181818;stroke-width:1.0;"/><line style="stroke:#181818;stroke-width:1.0;stroke-dasharray:2.0,2.0;" x1="410" x2="570" y1="275.304" y2="275.304"/><text fill="#000000" font-family="sans-serif" font-size="13" lengthAdjust="spacing" textLength="130" x="422" y="269.495">Lista de publicaciones</text><polygon fill="#181818" points="207,303.01,197,307.01,207,311.01,203,307.01" style="stroke:#181818;stroke-width:1.0;"/><line style="stroke:#181818;stroke-width:1.0;stroke-dasharray:2.0,2.0;" x1="201" x2="404" y1="307.01" y2="307.01"/><text fill="#000000" font-family="sans-serif" font-size="13" lengthAdjust="spacing" textLength="185" x="213" y="301.201">200 OK + Lista de publicaciones</text><polygon fill="#181818" points="45,334.716,35,338.716,45,342.716,41,338.716" style="stroke:#181818;stroke-width:1.0;"/><line style="stroke:#181818;stroke-width:1.0;stroke-dasharray:2.0,2.0;" x1="39" x2="195" y1="338.716" y2="338.716"/><text fill="#000000" font-family="sans-serif" font-size="13" lengthAdjust="spacing" textLength="132" x="51" y="332.907">Mostrar publicaciones</text><!--SRC=[TL2xIaGn4Etp5OUj55bSB6yXgAmMAXO-AflPP1Q3CGapkU3l-2t-cBEozouHxCB9UGxvLWJFEfB4ubmbQT77IhdXMafkd4C7BYx9lnk8e_Ld5LOzNe0KUzG5QhGXPJoEzVVXtDuRo_FP4GCklEV0e8GjSq2Lc7S9oSqSuqzP0sxMJpYjHPkw2Up-NoZ5G0Ah-ltrmKrAHvpQ6FEgP1rJst77JOgUV2oPzJKN2Pmfs9Xg5zcoVoFdPk6oYxkBsWZMl_Cu9FPRprOhFDpYv3_PORBffdCDkBUvyhVd3m00]--></g></svg>