<?xml version="1.0" encoding="us-ascii" standalone="no"?><svg xmlns="http://www.w3.org/2000/svg" xmlns:xlink="http://www.w3.org/1999/xlink" contentStyleType="text/css" height="467px" preserveAspectRatio="none" style="width:498px;height:467px;background:#FFFFFF;" version="1.1" viewBox="0 0 498 467" width="498px" zoomAndPan="magnify"><defs/><g><line style="stroke:#181818;stroke-width:0.5;stroke-dasharray:5.0,5.0;" x1="34" x2="34" y1="84.0679" y2="383.716"/><line style="stroke:#181818;stroke-width:0.5;stroke-dasharray:5.0,5.0;" x1="181.5" x2="181.5" y1="84.0679" y2="383.716"/><line style="stroke:#181818;stroke-width:0.5;stroke-dasharray:5.0,5.0;" x1="324.5" x2="324.5" y1="84.0679" y2="383.716"/><line style="stroke:#181818;stroke-width:0.5;stroke-dasharray:5.0,5.0;" x1="461" x2="461" y1="84.0679" y2="383.716"/><text fill="#000000" font-family="sans-serif" font-size="14" lengthAdjust="spacing" textLength="52" x="5" y="79.9659">Usuario</text><ellipse cx="34" cy="13.5" fill="#E2E2F0" rx="8" ry="8" style="stroke:#181818;stroke-width:0.5;"/><path d="M34,21.5 L34,48.5 M21,29.5 L47,29.5 M34,48.5 L21,63.5 M34,48.5 L47,63.5 " fill="none" style="stroke:#181818;stroke-width:0.5;"/><text fill="#000000" font-family="sans-serif" font-size="14" lengthAdjust="spacing" textLength="52" x="5" y="397.682">Usuario</text><ellipse cx="34" cy="410.284" fill="#E2E2F0" rx="8" ry="8" style="stroke:#181818;stroke-width:0.5;"/><path d="M34,418.284 L34,445.284 M21,426.284 L47,426.284 M34,445.284 L21,460.284 M34,445.284 L47,460.284 " fill="none" style="stroke:#181818;stroke-width:0.5;"/><rect fill="#E2E2F0" height="33.0679" rx="2.5" ry="2.5" style="stroke:#181818;stroke-width:0.5;" width="75" x="144.5" y="50"/><text fill="#000000" font-family="sans-serif" font-size="14" lengthAdjust="spacing" textLength="61" x="151.5" y="71.9659">Frontend</text><rect fill="#E2E2F0" height="33.0679" rx="2.5" ry="2.5" style="stroke:#181818;stroke-width:0.5;" width="75" x="144.5" y="382.716"/><text fill="#000000" font-family="sans-serif" font-size="14" lengthAdjust="spacing" textLength="61" x="151.5" y="404.682">Frontend</text><rect fill="#E2E2F0" height="33.0679" rx="2.5" ry="2.5" style="stroke:#181818;stroke-width:0.5;" width="135" x="257.5" y="50"/><text fill="#000000" font-family="sans-serif" font-size="14" lengthAdjust="spacing" textLength="121" x="264.5" y="71.9659">Backend (Express)</text><rect fill="#E2E2F0" height="33.0679" rx="2.5" ry="2.5" style="stroke:#181818;stroke-width:0.5;" width="135" x="257.5" y="382.716"/><text fill="#000000" font-family="sans-serif" font-size="14" lengthAdjust="spacing" textLength="121" x="264.5" y="404.682">Backend (Express)</text><text fill="#000000" font-family="sans-serif" font-size="14" lengthAdjust="spacing" textLength="66" x="425" y="79.9659">Supabase</text><path d="M443,29 C443,19 461,19 461,19 C461,19 479,19 479,29 L479,55 C479,65 461,65 461,65 C461,65 443,65 443,55 L443,29 " fill="#E2E2F0" style="stroke:#181818;stroke-width:1.5;"/><path d="M443,29 C443,39 461,39 461,39 C461,39 479,39 479,29 " fill="none" style="stroke:#181818;stroke-width:1.5;"/><text fill="#000000" font-family="sans-serif" font-size="14" lengthAdjust="spacing" textLength="66" x="425" y="397.682">Supabase</text><path d="M443,411.784 C443,401.784 461,401.784 461,401.784 C461,401.784 479,401.784 479,411.784 L479,437.784 C479,447.784 461,447.784 461,447.784 C461,447.784 443,447.784 443,437.784 L443,411.784 " fill="#E2E2F0" style="stroke:#181818;stroke-width:1.5;"/><path d="M443,411.784 C443,421.784 461,421.784 461,421.784 C461,421.784 479,421.784 479,411.784 " fill="none" style="stroke:#181818;stroke-width:1.5;"/><polygon fill="#181818" points="170,113.7739,180,117.7739,170,121.7739,174,117.7739" style="stroke:#181818;stroke-width:1.0;"/><line style="stroke:#181818;stroke-width:1.0;" x1="34" x2="176" y1="117.7739" y2="117.7739"/><text fill="#000000" font-family="sans-serif" font-size="13" lengthAdjust="spacing" textLength="124" x="41" y="111.9649">Completa formulario</text><polygon fill="#181818" points="313,145.4799,323,149.4799,313,153.4799,317,149.4799" style="stroke:#181818;stroke-width:1.0;"/><line style="stroke:#181818;stroke-width:1.0;" x1="182" x2="319" y1="149.4799" y2="149.4799"/><text fill="#000000" font-family="sans-serif" font-size="13" lengthAdjust="spacing" textLength="119" x="189" y="143.6709">POST /auth/register</text><line style="stroke:#181818;stroke-width:1.0;" x1="325" x2="367" y1="181.186" y2="181.186"/><line style="stroke:#181818;stroke-width:1.0;" x1="367" x2="367" y1="181.186" y2="194.186"/><line style="stroke:#181818;stroke-width:1.0;" x1="326" x2="367" y1="194.186" y2="194.186"/><polygon fill="#181818" points="336,190.186,326,194.186,336,198.186,332,194.186" style="stroke:#181818;stroke-width:1.0;"/><text fill="#000000" font-family="sans-serif" font-size="13" lengthAdjust="spacing" textLength="78" x="332" y="175.377">Validar datos</text><line style="stroke:#181818;stroke-width:1.0;" x1="325" x2="367" y1="225.892" y2="225.892"/><line style="stroke:#181818;stroke-width:1.0;" x1="367" x2="367" y1="225.892" y2="238.892"/><line style="stroke:#181818;stroke-width:1.0;" x1="326" x2="367" y1="238.892" y2="238.892"/><polygon fill="#181818" points="336,234.892,326,238.892,336,242.892,332,238.892" style="stroke:#181818;stroke-width:1.0;"/><text fill="#000000" font-family="sans-serif" font-size="13" lengthAdjust="spacing" textLength="120" x="332" y="220.083">Hashear contrase&#241;a</text><polygon fill="#181818" points="449,266.598,459,270.598,449,274.598,453,270.598" style="stroke:#181818;stroke-width:1.0;"/><line style="stroke:#181818;stroke-width:1.0;" x1="325" x2="455" y1="270.598" y2="270.598"/><text fill="#000000" font-family="sans-serif" font-size="13" lengthAdjust="spacing" textLength="112" x="332" y="264.789">INSERT INTO users</text><polygon fill="#181818" points="336,298.304,326,302.304,336,306.304,332,302.304" style="stroke:#181818;stroke-width:1.0;"/><line style="stroke:#181818;stroke-width:1.0;stroke-dasharray:2.0,2.0;" x1="330" x2="460" y1="302.304" y2="302.304"/><text fill="#000000" font-family="sans-serif" font-size="13" lengthAdjust="spacing" textLength="91" x="342" y="296.495">Usuario creado</text><polygon fill="#181818" points="193,330.01,183,334.01,193,338.01,189,334.01" style="stroke:#181818;stroke-width:1.0;"/><line style="stroke:#181818;stroke-width:1.0;stroke-dasharray:2.0,2.0;" x1="187" x2="324" y1="334.01" y2="334.01"/><text fill="#000000" font-family="sans-serif" font-size="13" lengthAdjust="spacing" textLength="71" x="199" y="328.201">201 Created</text><polygon fill="#181818" points="45,361.716,35,365.716,45,369.716,41,365.716" style="stroke:#181818;stroke-width:1.0;"/><line style="stroke:#181818;stroke-width:1.0;stroke-dasharray:2.0,2.0;" x1="39" x2="181" y1="365.716" y2="365.716"/><text fill="#000000" font-family="sans-serif" font-size="13" lengthAdjust="spacing" textLength="97" x="51" y="359.907">Registro exitoso</text><!--SRC=[ROz1JWCn34NtFeNL5Iog0ijPiA0gWWr5dO6zILmQCPr4TYBrMfo1Ys6Dcg4ZiOhr_VA_FxaS1T-qa8G8a4XoS27HaF5Huf1vy3DnyK3koqIysfoIiEhr0adnh8AdJ1-aZ6r9um1mziRb_UI83QxZCVMS2VTHZgKVqwUreJMcmTTjs-6AIZwiX3-3PXQesnduJdtm96WtHFqVUI8zi27EWiIk-_ccIx0URUJpIxlPTVPqMopAeW3JTZdphFsSCFduPpVlUtTpYsiZClkBdiRKxmtkndOIaK_16aJu1G00]--></g></svg>