<?xml version="1.0" encoding="us-ascii" standalone="no"?><svg xmlns="http://www.w3.org/2000/svg" xmlns:xlink="http://www.w3.org/1999/xlink" contentStyleType="text/css" height="422px" preserveAspectRatio="none" style="width:604px;height:422px;background:#FFFFFF;" version="1.1" viewBox="0 0 604 422" width="604px" zoomAndPan="magnify"><defs/><g><line style="stroke:#181818;stroke-width:0.5;stroke-dasharray:5.0,5.0;" x1="34" x2="34" y1="84.0679" y2="339.01"/><line style="stroke:#181818;stroke-width:0.5;stroke-dasharray:5.0,5.0;" x1="215.5" x2="215.5" y1="84.0679" y2="339.01"/><line style="stroke:#181818;stroke-width:0.5;stroke-dasharray:5.0,5.0;" x1="397.5" x2="397.5" y1="84.0679" y2="339.01"/><line style="stroke:#181818;stroke-width:0.5;stroke-dasharray:5.0,5.0;" x1="567" x2="567" y1="84.0679" y2="339.01"/><text fill="#000000" font-family="sans-serif" font-size="14" lengthAdjust="spacing" textLength="52" x="5" y="79.9659">Usuario</text><ellipse cx="34" cy="13.5" fill="#E2E2F0" rx="8" ry="8" style="stroke:#181818;stroke-width:0.5;"/><path d="M34,21.5 L34,48.5 M21,29.5 L47,29.5 M34,48.5 L21,63.5 M34,48.5 L47,63.5 " fill="none" style="stroke:#181818;stroke-width:0.5;"/><text fill="#000000" font-family="sans-serif" font-size="14" lengthAdjust="spacing" textLength="52" x="5" y="352.976">Usuario</text><ellipse cx="34" cy="365.5779" fill="#E2E2F0" rx="8" ry="8" style="stroke:#181818;stroke-width:0.5;"/><path d="M34,373.5779 L34,400.5779 M21,381.5779 L47,381.5779 M34,400.5779 L21,415.5779 M34,400.5779 L47,415.5779 " fill="none" style="stroke:#181818;stroke-width:0.5;"/><rect fill="#E2E2F0" height="33.0679" rx="2.5" ry="2.5" style="stroke:#181818;stroke-width:0.5;" width="75" x="178.5" y="50"/><text fill="#000000" font-family="sans-serif" font-size="14" lengthAdjust="spacing" textLength="61" x="185.5" y="71.9659">Frontend</text><rect fill="#E2E2F0" height="33.0679" rx="2.5" ry="2.5" style="stroke:#181818;stroke-width:0.5;" width="75" x="178.5" y="338.01"/><text fill="#000000" font-family="sans-serif" font-size="14" lengthAdjust="spacing" textLength="61" x="185.5" y="359.976">Frontend</text><rect fill="#E2E2F0" height="33.0679" rx="2.5" ry="2.5" style="stroke:#181818;stroke-width:0.5;" width="135" x="330.5" y="50"/><text fill="#000000" font-family="sans-serif" font-size="14" lengthAdjust="spacing" textLength="121" x="337.5" y="71.9659">Backend (Express)</text><rect fill="#E2E2F0" height="33.0679" rx="2.5" ry="2.5" style="stroke:#181818;stroke-width:0.5;" width="135" x="330.5" y="338.01"/><text fill="#000000" font-family="sans-serif" font-size="14" lengthAdjust="spacing" textLength="121" x="337.5" y="359.976">Backend (Express)</text><text fill="#000000" font-family="sans-serif" font-size="14" lengthAdjust="spacing" textLength="66" x="531" y="79.9659">Supabase</text><path d="M549,29 C549,19 567,19 567,19 C567,19 585,19 585,29 L585,55 C585,65 567,65 567,65 C567,65 549,65 549,55 L549,29 " fill="#E2E2F0" style="stroke:#181818;stroke-width:1.5;"/><path d="M549,29 C549,39 567,39 567,39 C567,39 585,39 585,29 " fill="none" style="stroke:#181818;stroke-width:1.5;"/><text fill="#000000" font-family="sans-serif" font-size="14" lengthAdjust="spacing" textLength="66" x="531" y="352.976">Supabase</text><path d="M549,367.0779 C549,357.0779 567,357.0779 567,357.0779 C567,357.0779 585,357.0779 585,367.0779 L585,393.0779 C585,403.0779 567,403.0779 567,403.0779 C567,403.0779 549,403.0779 549,393.0779 L549,367.0779 " fill="#E2E2F0" style="stroke:#181818;stroke-width:1.5;"/><path d="M549,367.0779 C549,377.0779 567,377.0779 567,377.0779 C567,377.0779 585,377.0779 585,367.0779 " fill="none" style="stroke:#181818;stroke-width:1.5;"/><polygon fill="#181818" points="204,113.7739,214,117.7739,204,121.7739,208,117.7739" style="stroke:#181818;stroke-width:1.0;"/><line style="stroke:#181818;stroke-width:1.0;" x1="34" x2="210" y1="117.7739" y2="117.7739"/><text fill="#000000" font-family="sans-serif" font-size="13" lengthAdjust="spacing" textLength="158" x="41" y="111.9649">Escribe texto de b&#250;squeda</text><polygon fill="#181818" points="386,145.4799,396,149.4799,386,153.4799,390,149.4799" style="stroke:#181818;stroke-width:1.0;"/><line style="stroke:#181818;stroke-width:1.0;" x1="216" x2="392" y1="149.4799" y2="149.4799"/><text fill="#000000" font-family="sans-serif" font-size="13" lengthAdjust="spacing" textLength="158" x="223" y="143.6709">GET /posts?search={texto}</text><line style="stroke:#181818;stroke-width:1.0;" x1="398" x2="440" y1="181.186" y2="181.186"/><line style="stroke:#181818;stroke-width:1.0;" x1="440" x2="440" y1="181.186" y2="194.186"/><line style="stroke:#181818;stroke-width:1.0;" x1="399" x2="440" y1="194.186" y2="194.186"/><polygon fill="#181818" points="409,190.186,399,194.186,409,198.186,405,194.186" style="stroke:#181818;stroke-width:1.0;"/><text fill="#000000" font-family="sans-serif" font-size="13" lengthAdjust="spacing" textLength="114" x="405" y="175.377">Validar par&#225;metros</text><polygon fill="#181818" points="555,221.892,565,225.892,555,229.892,559,225.892" style="stroke:#181818;stroke-width:1.0;"/><line style="stroke:#181818;stroke-width:1.0;" x1="398" x2="561" y1="225.892" y2="225.892"/><text fill="#000000" font-family="sans-serif" font-size="13" lengthAdjust="spacing" textLength="124" x="405" y="220.083">Buscar publicaciones</text><polygon fill="#181818" points="409,253.598,399,257.598,409,261.598,405,257.598" style="stroke:#181818;stroke-width:1.0;"/><line style="stroke:#181818;stroke-width:1.0;stroke-dasharray:2.0,2.0;" x1="403" x2="566" y1="257.598" y2="257.598"/><text fill="#000000" font-family="sans-serif" font-size="13" lengthAdjust="spacing" textLength="145" x="415" y="251.789">Resultados encontrados</text><polygon fill="#181818" points="227,285.304,217,289.304,227,293.304,223,289.304" style="stroke:#181818;stroke-width:1.0;"/><line style="stroke:#181818;stroke-width:1.0;stroke-dasharray:2.0,2.0;" x1="221" x2="397" y1="289.304" y2="289.304"/><text fill="#000000" font-family="sans-serif" font-size="13" lengthAdjust="spacing" textLength="136" x="233" y="283.495">200 OK + Publicaciones</text><polygon fill="#181818" points="45,317.01,35,321.01,45,325.01,41,321.01" style="stroke:#181818;stroke-width:1.0;"/><line style="stroke:#181818;stroke-width:1.0;stroke-dasharray:2.0,2.0;" x1="39" x2="215" y1="321.01" y2="321.01"/><text fill="#000000" font-family="sans-serif" font-size="13" lengthAdjust="spacing" textLength="114" x="51" y="315.201">Mostrar resultados</text><!--SRC=[LP1DIWH138NtEKMObIA3Wyi65GPQ5oAAV_jqLS32jgfCKZ0W7iPhk9sBMJDCjzOkFBwyl1TobWIVjP241919BBYGAHfUIOh6qJVYOatkhOfur6-oiEhn0adne88deu6KyR7a_G1myCRbnUo87VRg90oCnXjBw1c7xOz-5FO4C6DrPJhNuNN_XASvgUcbCebxFV_SBty1J533lz0OF0dMzDllTpP9sf1JmegkYxeTMOOnE78XHQxi32mRtmVMCXhvfCZHrQIoc_zPjqNFLYkyky4Jl6_T_qfMVlfHXxUreDGiCb-1Nm00]--></g></svg>