<?xml version="1.0" encoding="us-ascii" standalone="no"?><svg xmlns="http://www.w3.org/2000/svg" xmlns:xlink="http://www.w3.org/1999/xlink" contentStyleType="text/css" height="695px" preserveAspectRatio="none" style="width:660px;height:695px;background:#FFFFFF;" version="1.1" viewBox="0 0 660 695" width="660px" zoomAndPan="magnify"><defs/><g><rect fill="none" height="385.73" style="stroke:#000000;stroke-width:1.5;" width="643.5" x="10" y="209.186"/><rect fill="none" height="226.924" style="stroke:#000000;stroke-width:1.5;" width="623.5" x="20" y="280.598"/><line style="stroke:#181818;stroke-width:0.5;stroke-dasharray:5.0,5.0;" x1="70" x2="70" y1="84.0679" y2="611.9159"/><line style="stroke:#181818;stroke-width:0.5;stroke-dasharray:5.0,5.0;" x1="253" x2="253" y1="84.0679" y2="611.9159"/><line style="stroke:#181818;stroke-width:0.5;stroke-dasharray:5.0,5.0;" x1="388" x2="388" y1="84.0679" y2="611.9159"/><line style="stroke:#181818;stroke-width:0.5;stroke-dasharray:5.0,5.0;" x1="597.5" x2="597.5" y1="84.0679" y2="611.9159"/><text fill="#000000" font-family="sans-serif" font-size="14" lengthAdjust="spacing" textLength="75" x="30" y="79.9659">Moderador</text><ellipse cx="70.5" cy="13.5" fill="#E2E2F0" rx="8" ry="8" style="stroke:#181818;stroke-width:0.5;"/><path d="M70.5,21.5 L70.5,48.5 M57.5,29.5 L83.5,29.5 M70.5,48.5 L57.5,63.5 M70.5,48.5 L83.5,63.5 " fill="none" style="stroke:#181818;stroke-width:0.5;"/><text fill="#000000" font-family="sans-serif" font-size="14" lengthAdjust="spacing" textLength="75" x="30" y="625.8819">Moderador</text><ellipse cx="70.5" cy="638.4838" fill="#E2E2F0" rx="8" ry="8" style="stroke:#181818;stroke-width:0.5;"/><path d="M70.5,646.4838 L70.5,673.4838 M57.5,654.4838 L83.5,654.4838 M70.5,673.4838 L57.5,688.4838 M70.5,673.4838 L83.5,688.4838 " fill="none" style="stroke:#181818;stroke-width:0.5;"/><rect fill="#E2E2F0" height="33.0679" rx="2.5" ry="2.5" style="stroke:#181818;stroke-width:0.5;" width="75" x="216" y="50"/><text fill="#000000" font-family="sans-serif" font-size="14" lengthAdjust="spacing" textLength="61" x="223" y="71.9659">Frontend</text><rect fill="#E2E2F0" height="33.0679" rx="2.5" ry="2.5" style="stroke:#181818;stroke-width:0.5;" width="75" x="216" y="610.9159"/><text fill="#000000" font-family="sans-serif" font-size="14" lengthAdjust="spacing" textLength="61" x="223" y="632.8819">Frontend</text><rect fill="#E2E2F0" height="33.0679" rx="2.5" ry="2.5" style="stroke:#181818;stroke-width:0.5;" width="135" x="321" y="50"/><text fill="#000000" font-family="sans-serif" font-size="14" lengthAdjust="spacing" textLength="121" x="328" y="71.9659">Backend (Express)</text><rect fill="#E2E2F0" height="33.0679" rx="2.5" ry="2.5" style="stroke:#181818;stroke-width:0.5;" width="135" x="321" y="610.9159"/><text fill="#000000" font-family="sans-serif" font-size="14" lengthAdjust="spacing" textLength="121" x="328" y="632.8819">Backend (Express)</text><text fill="#000000" font-family="sans-serif" font-size="14" lengthAdjust="spacing" textLength="66" x="561.5" y="79.9659">Supabase</text><path d="M579.5,29 C579.5,19 597.5,19 597.5,19 C597.5,19 615.5,19 615.5,29 L615.5,55 C615.5,65 597.5,65 597.5,65 C597.5,65 579.5,65 579.5,55 L579.5,29 " fill="#E2E2F0" style="stroke:#181818;stroke-width:1.5;"/><path d="M579.5,29 C579.5,39 597.5,39 597.5,39 C597.5,39 615.5,39 615.5,29 " fill="none" style="stroke:#181818;stroke-width:1.5;"/><text fill="#000000" font-family="sans-serif" font-size="14" lengthAdjust="spacing" textLength="66" x="561.5" y="625.8819">Supabase</text><path d="M579.5,639.9838 C579.5,629.9838 597.5,629.9838 597.5,629.9838 C597.5,629.9838 615.5,629.9838 615.5,639.9838 L615.5,665.9838 C615.5,675.9838 597.5,675.9838 597.5,675.9838 C597.5,675.9838 579.5,675.9838 579.5,665.9838 L579.5,639.9838 " fill="#E2E2F0" style="stroke:#181818;stroke-width:1.5;"/><path d="M579.5,639.9838 C579.5,649.9838 597.5,649.9838 597.5,649.9838 C597.5,649.9838 615.5,649.9838 615.5,639.9838 " fill="none" style="stroke:#181818;stroke-width:1.5;"/><polygon fill="#181818" points="241.5,113.7739,251.5,117.7739,241.5,121.7739,245.5,117.7739" style="stroke:#181818;stroke-width:1.0;"/><line style="stroke:#181818;stroke-width:1.0;" x1="70.5" x2="247.5" y1="117.7739" y2="117.7739"/><text fill="#000000" font-family="sans-serif" font-size="13" lengthAdjust="spacing" textLength="159" x="77.5" y="111.9649">Selecciona una publicaci&#243;n</text><polygon fill="#181818" points="376.5,145.4799,386.5,149.4799,376.5,153.4799,380.5,149.4799" style="stroke:#181818;stroke-width:1.0;"/><line style="stroke:#181818;stroke-width:1.0;" x1="253.5" x2="382.5" y1="149.4799" y2="149.4799"/><text fill="#000000" font-family="sans-serif" font-size="13" lengthAdjust="spacing" textLength="111" x="260.5" y="143.6709">DELETE /posts/{id}</text><line style="stroke:#181818;stroke-width:1.0;" x1="388.5" x2="430.5" y1="181.186" y2="181.186"/><line style="stroke:#181818;stroke-width:1.0;" x1="430.5" x2="430.5" y1="181.186" y2="194.186"/><line style="stroke:#181818;stroke-width:1.0;" x1="389.5" x2="430.5" y1="194.186" y2="194.186"/><polygon fill="#181818" points="399.5,190.186,389.5,194.186,399.5,198.186,395.5,194.186" style="stroke:#181818;stroke-width:1.0;"/><text fill="#000000" font-family="sans-serif" font-size="13" lengthAdjust="spacing" textLength="67" x="395.5" y="175.377">Validar JWT</text><path d="M10,209.186 L73,209.186 L73,218.892 L63,228.892 L10,228.892 L10,209.186 " fill="#EEEEEE" style="stroke:#000000;stroke-width:1.5;"/><rect fill="none" height="385.73" style="stroke:#000000;stroke-width:1.5;" width="643.5" x="10" y="209.186"/><text fill="#000000" font-family="sans-serif" font-size="13" font-weight="bold" lengthAdjust="spacing" textLength="18" x="25" y="224.083">alt</text><text fill="#000000" font-family="sans-serif" font-size="11" font-weight="bold" lengthAdjust="spacing" textLength="65" x="88" y="222.9449">[JWT v&#225;lido]</text><line style="stroke:#181818;stroke-width:1.0;" x1="388.5" x2="430.5" y1="252.598" y2="252.598"/><line style="stroke:#181818;stroke-width:1.0;" x1="430.5" x2="430.5" y1="252.598" y2="265.598"/><line style="stroke:#181818;stroke-width:1.0;" x1="389.5" x2="430.5" y1="265.598" y2="265.598"/><polygon fill="#181818" points="399.5,261.598,389.5,265.598,399.5,269.598,395.5,265.598" style="stroke:#181818;stroke-width:1.0;"/><text fill="#000000" font-family="sans-serif" font-size="13" lengthAdjust="spacing" textLength="195" x="395.5" y="246.789">Verificar permisos de moderador</text><path d="M20,280.598 L83,280.598 L83,290.304 L73,300.304 L20,300.304 L20,280.598 " fill="#EEEEEE" style="stroke:#000000;stroke-width:1.5;"/><rect fill="none" height="226.924" style="stroke:#000000;stroke-width:1.5;" width="623.5" x="20" y="280.598"/><text fill="#000000" font-family="sans-serif" font-size="13" font-weight="bold" lengthAdjust="spacing" textLength="18" x="35" y="295.495">alt</text><text fill="#000000" font-family="sans-serif" font-size="11" font-weight="bold" lengthAdjust="spacing" textLength="99" x="98" y="294.3569">[Permisos v&#225;lidos]</text><polygon fill="#181818" points="585.5,320.01,595.5,324.01,585.5,328.01,589.5,324.01" style="stroke:#181818;stroke-width:1.0;"/><line style="stroke:#181818;stroke-width:1.0;" x1="388.5" x2="591.5" y1="324.01" y2="324.01"/><text fill="#000000" font-family="sans-serif" font-size="13" lengthAdjust="spacing" textLength="119" x="395.5" y="318.201">Eliminar publicaci&#243;n</text><polygon fill="#181818" points="399.5,351.716,389.5,355.716,399.5,359.716,395.5,355.716" style="stroke:#181818;stroke-width:1.0;"/><line style="stroke:#181818;stroke-width:1.0;stroke-dasharray:2.0,2.0;" x1="393.5" x2="596.5" y1="355.716" y2="355.716"/><text fill="#000000" font-family="sans-serif" font-size="13" lengthAdjust="spacing" textLength="129" x="405.5" y="349.907">Publicaci&#243;n eliminada</text><polygon fill="#181818" points="264.5,383.4221,254.5,387.4221,264.5,391.4221,260.5,387.4221" style="stroke:#181818;stroke-width:1.0;"/><line style="stroke:#181818;stroke-width:1.0;stroke-dasharray:2.0,2.0;" x1="258.5" x2="387.5" y1="387.4221" y2="387.4221"/><text fill="#000000" font-family="sans-serif" font-size="13" lengthAdjust="spacing" textLength="94" x="270.5" y="381.6131">204 No Content</text><polygon fill="#181818" points="81.5,415.1281,71.5,419.1281,81.5,423.1281,77.5,419.1281" style="stroke:#181818;stroke-width:1.0;"/><line style="stroke:#181818;stroke-width:1.0;stroke-dasharray:2.0,2.0;" x1="75.5" x2="252.5" y1="419.1281" y2="419.1281"/><text fill="#000000" font-family="sans-serif" font-size="13" lengthAdjust="spacing" textLength="129" x="87.5" y="413.3191">Publicaci&#243;n eliminada</text><line style="stroke:#000000;stroke-width:1.0;stroke-dasharray:2.0,2.0;" x1="20" x2="643.5" y1="428.1281" y2="428.1281"/><text fill="#000000" font-family="sans-serif" font-size="11" font-weight="bold" lengthAdjust="spacing" textLength="77" x="25" y="439.887">[Sin permisos]</text><polygon fill="#181818" points="264.5,463.816,254.5,467.816,264.5,471.816,260.5,467.816" style="stroke:#181818;stroke-width:1.0;"/><line style="stroke:#181818;stroke-width:1.0;stroke-dasharray:2.0,2.0;" x1="258.5" x2="387.5" y1="467.816" y2="467.816"/><text fill="#000000" font-family="sans-serif" font-size="13" lengthAdjust="spacing" textLength="86" x="270.5" y="462.007">403 Forbidden</text><polygon fill="#181818" points="81.5,495.522,71.5,499.522,81.5,503.522,77.5,499.522" style="stroke:#181818;stroke-width:1.0;"/><line style="stroke:#181818;stroke-width:1.0;stroke-dasharray:2.0,2.0;" x1="75.5" x2="252.5" y1="499.522" y2="499.522"/><text fill="#000000" font-family="sans-serif" font-size="13" lengthAdjust="spacing" textLength="105" x="87.5" y="493.713">Acceso denegado</text><line style="stroke:#000000;stroke-width:1.0;stroke-dasharray:2.0,2.0;" x1="10" x2="653.5" y1="515.522" y2="515.522"/><text fill="#000000" font-family="sans-serif" font-size="11" font-weight="bold" lengthAdjust="spacing" textLength="75" x="15" y="527.2809">[JWT inv&#225;lido]</text><polygon fill="#181818" points="264.5,551.2099,254.5,555.2099,264.5,559.2099,260.5,555.2099" style="stroke:#181818;stroke-width:1.0;"/><line style="stroke:#181818;stroke-width:1.0;stroke-dasharray:2.0,2.0;" x1="258.5" x2="387.5" y1="555.2099" y2="555.2099"/><text fill="#000000" font-family="sans-serif" font-size="13" lengthAdjust="spacing" textLength="107" x="270.5" y="549.4009">401 Unauthorized</text><polygon fill="#181818" points="81.5,582.9159,71.5,586.9159,81.5,590.9159,77.5,586.9159" style="stroke:#181818;stroke-width:1.0;"/><line style="stroke:#181818;stroke-width:1.0;stroke-dasharray:2.0,2.0;" x1="75.5" x2="252.5" y1="586.9159" y2="586.9159"/><text fill="#000000" font-family="sans-serif" font-size="13" lengthAdjust="spacing" textLength="110" x="87.5" y="581.1069">Debe iniciar sesi&#243;n</text><!--SRC=[ZLBBJiCm4BpxArOzmQ5gWPvwG0AQ7X2WIYrmtjWBh4XjotOG0l4nV0EVq1_3RfgagSh3aYLhTtR6dZ7AO1nS6qKEbN52M7I19LlK0QREw41QTOgzSvJFiGW7sQjrvFrX3z33fYeK1ipH4ynBkpu8qR13_xJXX37CgI0fsMY4CcvRvWLBbBpwqa8qk3XJAuvXabrbYmm6rlZW1- -iFeIekntW7HQiqC7b_K88B48wmClgCrQD413N_Z5o_10luS2IMx8t7XJ1ihKdJIQwMTtUSFggjKDSUn2PiuANh1DnvvdrK8FiT-upsm83LHGAzsXrdJqUZk36mCMw45fuQsh4jx7yhaD5IfDrOycVygFX2KoDorafqlzGFvEIl8bEQth4Ef_qcSHQEqN7Udzuky97SAkn34_6yHkf2loZxeHoYipnPyTSFFagaYJy3G00]--></g></svg>